<svg xmlns="http://www.w3.org/2000/svg" width="900" height="335.4" viewBox="0 0 900 335.4"><path fill="#FFEB3B" d="M91.148 110.585c0 2.313 0 6.41-.71 10.858-1.07 5.52-3.383 10.682-6.766 14.952-3.56 3.738-7.654 6.587-12.816 8.544-5.162 1.957-11.393 2.85-18.87 2.85-15.308 0-26.345-3.916-32.93-11.572-3.562-4.27-5.697-8.9-6.587-14.596-.89-4.273-.89-8.9-.89-12.64v-5.16l17.622.175v5.164c0 10.323 1.78 11.927 2.67 12.816 1.78 2.314 6.586 5.52 20.116 5.52 8.9 0 15.666-1.603 18.513-5.696 2.85-3.026 2.85-8.01 2.85-11.215v-.356c0-26.523-.89-45.57-1.246-52.514v-5.518l17.623-1.068v5.16c.178 7.122 1.423 26.88 1.423 53.94v.355h-.002zm7.3 30.084l6.23-15.312v-17.62h7.478l22.963-55.72h15.308l21.894 55.72h6.943v17.62l6.41 16.38-17.27 6.764-8.722-21.896h-35.067l-9.257 22.25-16.912-8.187zm43.97-57.855l-10.326 24.922h20.116l-9.79-24.922zm141.694 35.07l-.533 1.244c-2.493 5.696-5.875 10.68-9.435 14.42-4.274 4.628-9.257 8.188-14.954 10.857-5.874 2.492-12.104 4.094-18.513 4.094-6.408 0-12.816-1.422-18.513-4.093-5.874-2.492-11.037-6.23-14.953-10.858-4.45-4.452-7.654-9.79-10.324-15.844-2.313-6.23-3.737-12.64-3.737-19.403 0-6.587 1.245-12.996 3.736-19.226 2.493-6.23 5.875-11.394 10.325-15.844 4.095-4.628 9.08-8.012 14.775-10.858 6.23-2.67 12.46-4.094 18.69-4.094s12.64 1.425 18.515 4.095c5.696 2.493 10.858 6.23 14.954 10.858 3.915 4.272 6.764 8.723 8.9 13.707l-16.91 13.353-.18-.356c-1.067-4.45-3.56-8.365-6.763-12.104-4.983-5.34-11.57-8.19-18.69-8.19-7.298 0-13.707 2.67-18.87 8.19-4.983 5.518-7.832 12.815-7.832 20.47 0 7.833 2.85 15.132 7.833 20.472 5.164 5.52 11.572 8.366 18.87 8.366 7.12 0 13.707-2.847 18.69-8.187 2.67-2.85 4.63-6.053 6.054-9.437l.355-1.958 18.512 10.326zm84.555 31.683l-35.602-42.364-13.528 12.814.534 27.415-19.58.712-.712-21.184-8.366-7.654 8.01-7.298-1.6-60.523 20.114-.71.89 43.257 48.24-44.503 14.24 13.17-33.643 30.974 37.025 44.146-16.02 11.748zm64.265-21.005V148.5H397.15v-19.937h7.477V68.395h-6.942V49.17h34.89v19.226h-7.477v60.168h7.834zm21.182-55.894l-2.672.177-.534-20.648 81.71-1.426.534 20.472-58.568 1.067v17.98h36.493v20.47h-36.493v16.912l58.568 1.07-.535 20.47-81.71-1.246.356-20.294h2.67V72.67h.18zM277.882 266.164v19.938h-35.78v-19.938h7.478V206h-6.942V186.77h34.89V206h-7.478v60.165h7.832zm108.945-21.36c.71 7.477.71 13.705 0 18.69v.177c-1.068 6.055-3.383 10.86-6.41 14.24-3.56 4.273-8.365 6.768-14.774 8.012-4.628.713-8.9.89-14.063 1.068l-2.137.18c-2.136 0-4.27.178-6.408.178h-3.738c-16.376 0-26.88-3.383-33.466-9.79-6.763-6.944-6.763-15.132-6.763-18.692v-.176c0-.357.177-2.492.177-4.45v-3.74l19.937-.356v8.547c0 2.848.18 3.738.892 4.45.89.712 4.984 3.915 19.225 3.915h2.314c2.314-.178 4.985-.355 7.12-.355h1.07c6.585-.18 14.062-.535 15.486-2.137h.178c0-.355.89-1.066 1.068-4.27.534-3.563.534-7.833 0-13.53-1.068-.53-4.806-1.78-13.35-1.957l-22.252.175c-10.68-.176-16.91-.89-20.828-1.78-6.764-1.956-9.97-6.052-11.214-9.077 0 0-1.068-2.492-1.068-4.803-.356-16.2-.71-22.076 5.874-30.977 3.56-4.096 8.367-6.408 15.13-7.656 4.808-1.064 10.504-1.244 16.378-1.244h3.738c1.068-.178 2.136-.178 3.382-.178 15.487-.357 25.99 1.602 33.11 6.232 6.23 4.09 9.79 9.965 10.147 17.62v6.23l-20.117.71v-6.23c0-.532 0-.712-1.068-1.067-1.424-1.066-6.41-3.383-19.403-3.383h-5.52s-2.134 0-3.56.18c-6.585.18-15.31.357-17.266 2.137-.356.353-1.958 3.022-1.246 12.46h.356c2.847.354 7.297.53 13.173.53h22.605c11.927 0 20.65 2.315 26.168 6.59 6.055 4.625 7.124 10.14 7.124 13.525zm18.867 21.182l-2.136-79.393 20.472-.357 2.134 79.574 61.77-.358v20.295l-85.977.89V265.99h3.737v-.003zm89.542 12.283l6.23-15.31v-17.62h7.475l22.965-55.72h15.31l21.896 55.72h6.942v17.62l6.41 16.378-17.268 6.764-8.726-21.895h-35.245l-9.256 22.252-16.73-8.19zm43.966-57.85l-10.324 24.92h20.115l-9.79-24.92zm50.736 66.217l3.024-101.11 62.305 62.306-.177-57.676 18.868-.178.713 102.888-64.083-61.947-1.78 55.718h-18.87zm97.37-98.974h6.056c2.312 0 8.365-.355 16.378-.355 9.967 0 18.868.533 26.698 1.246 11.216 1.426 21.363 5.875 28.305 12.46 3.56 3.204 7.478 7.835 10.146 14.954 2.14 5.52 2.85 12.105 2.85 21.004 0 9.26-.71 15.666-2.85 21.363-2.493 6.94-6.586 11.748-10.145 14.773-6.94 6.584-17.268 11.215-28.305 12.46-7.83 1.067-17.09 1.247-27.235 1.247-7.476 0-13.352-.18-15.31-.18h-.89l-5.517-.176 1.6-19.23h4.274v-60.344l-4.273.182-1.782-19.405zm67.825 34.537c-1.068-2.852-2.67-5.164-5.52-7.658-3.562-3.56-9.437-6.23-15.666-6.586-5.873-.713-12.816-1.244-20.114-1.424v61.412c7.298-.176 14.24-.53 20.114-1.066 6.23-.713 12.283-3.025 15.666-6.764 2.67-2.492 4.45-4.807 5.52-7.834 1.243-3.025 1.6-7.3 1.6-13.17v-3.03c0-6.05-.355-10.5-1.6-13.35v-.53zm124.428 22.605c.714 7.477.714 13.705 0 18.69v.177c-1.065 6.055-3.38 10.86-6.406 14.24-3.562 4.273-8.365 6.768-14.775 8.012-4.63.713-8.9.89-14.063 1.068l-2.137.18c-2.136 0-4.27.178-6.41.178h-3.735c-16.376 0-26.88-3.383-33.466-9.79-6.768-6.944-6.768-15.132-6.768-18.692v-.176c0-.357.18-2.492.18-4.45v-3.74l19.937-.356v8.547c0 2.848.177 3.738.89 4.45.89.712 4.983 3.915 19.226 3.915h2.312c2.315-.178 4.985-.355 7.122-.355h1.067c6.586-.18 14.062-.535 15.484-2.137h.18c0-.355.89-1.066 1.07-4.27.53-3.563.53-7.833 0-13.53-1.07-.53-4.808-1.78-13.352-1.957l-22.252.175c-10.68-.176-16.91-.89-20.827-1.78-6.766-1.956-9.97-6.052-11.215-9.077 0 0-1.07-2.492-1.07-4.803-.354-16.2-.71-22.076 5.873-30.977 3.562-4.096 8.367-6.408 15.132-7.656 4.81-1.064 10.505-1.244 16.38-1.244h3.737c1.068-.178 2.135-.178 3.38-.178 15.488-.357 25.99 1.602 33.11 6.232 6.232 4.09 9.792 9.965 10.147 17.62v6.23l-19.938.71v-6.23c0-.532 0-.712-1.07-1.067-1.42-1.066-6.404-3.383-19.397-3.383h-5.877s-2.136 0-3.562.18c-6.582.18-15.306.357-17.263 2.137-.356.353-1.96 3.022-1.248 12.46h.355c2.85.354 7.3.53 13.172.53h22.607c11.927 0 20.65 2.315 26.168 6.59 6.23 4.625 7.3 10.14 7.3 13.525z" opacity=".7"/><path fill="#00BCD4" d="M99.295 104.836c0 2.313 0 6.408-.71 10.857-1.07 5.52-3.384 10.682-6.767 14.953-3.56 3.74-7.654 6.587-12.815 8.545-5.163 1.958-11.394 2.85-18.87 2.85-15.31 0-26.346-3.916-32.932-11.572-3.56-4.27-5.696-8.9-6.585-14.597-.89-4.27-.89-8.9-.89-12.638V98.07l17.623.178v5.163c0 10.324 1.78 11.926 2.67 12.815 1.78 2.314 6.588 5.52 20.116 5.52 8.9 0 15.665-1.602 18.514-5.696 2.848-3.026 2.848-8.01 2.848-11.215v-.355c0-26.524-.89-45.57-1.246-52.514v-5.52l17.623-1.067v5.162c.178 7.12 1.424 26.88 1.424 53.938v.356h-.002zm7.3 29.907l6.23-15.31V101.81h7.477l22.963-55.72h15.31l21.894 55.72h6.94v17.623l6.41 16.376-17.268 6.764-8.72-21.896h-35.07l-9.256 22.252-16.91-8.187zm43.967-57.856L140.24 101.81h20.292l-9.97-24.923zm141.697 35.248l-.534 1.247c-2.493 5.696-5.875 10.68-9.436 14.418-4.273 4.628-9.256 8.188-14.953 10.86-5.874 2.49-12.104 4.094-18.513 4.094-6.408 0-12.817-1.425-18.513-4.095-5.873-2.494-11.036-6.232-14.952-10.86-4.45-4.45-7.654-9.792-10.325-15.843-2.313-6.23-3.738-12.64-3.738-19.404 0-6.586 1.246-12.994 3.738-19.224 2.493-6.232 5.875-11.397 10.325-15.846 4.094-4.628 9.08-8.01 14.775-10.856 6.23-2.67 12.46-4.096 18.69-4.096 6.232 0 12.64 1.425 18.514 4.096 5.697 2.49 10.86 6.23 14.953 10.856 3.917 4.273 6.765 8.725 8.9 13.708l-16.91 13.35-.178-.355c-1.067-4.45-3.56-8.365-6.765-12.104-4.983-5.34-11.57-8.188-18.69-8.188-7.3 0-13.708 2.67-18.87 8.188-4.984 5.517-7.832 12.815-7.832 20.47 0 7.833 2.85 15.13 7.832 20.472 5.163 5.52 11.57 8.366 18.87 8.366 7.12 0 13.708-2.848 18.69-8.187 2.67-2.85 4.63-6.054 6.053-9.437l.356-1.958 18.513 10.327zm84.554 31.686l-35.603-42.366-13.526 12.816.534 27.413-19.582.712-.712-21.183-8.366-7.655 8.01-7.298-1.6-60.523 20.113-.714.892 43.26 48.242-44.504 14.24 13.17-33.644 30.975 37.027 44.147-16.023 11.75zm64.44-21.183v19.938h-35.78v-19.938h7.476V62.47h-6.942V43.244h34.89V62.47h-7.476v60.168h7.832zM462.26 66.92l-2.67.178-.354-20.648 81.708-1.425.533 20.473-58.743 1.066v17.98h36.49v20.47h-36.49v16.91l58.743.892-.533 20.472-81.708-1.247.355-20.292h2.67V66.92zm-176.23 193.5v19.935h-35.78V260.42h7.475v-60.17h-6.942v-19.226h34.89v19.225h-7.476v60.17h7.832zm108.943-21.54c.712 7.475.712 13.705 0 18.69v.177c-1.068 6.053-3.383 10.857-6.408 14.24-3.56 4.273-8.368 6.766-14.776 8.012-4.628.712-8.9.89-14.063 1.067l-2.136.176c-2.135 0-4.27.182-6.407.182h-3.74c-16.376 0-26.878-3.383-33.464-9.793-6.767-6.94-6.767-15.13-6.767-18.69v-.18c0-.354.178-2.49.178-4.45v-3.736l19.94-.355v8.544c0 2.852.177 3.74.89 4.45.89.712 4.983 3.92 19.224 3.92h2.314c2.315-.18 4.985-.358 7.12-.358h1.07c6.585-.178 14.06-.53 15.486-2.135h.178c0-.356.89-1.067 1.067-4.27.535-3.562.535-7.834 0-13.53-1.068-.534-4.806-1.78-13.352-1.956l-22.25.176c-10.68-.176-16.912-.89-20.827-1.777-6.764-1.957-9.968-6.055-11.214-9.078 0 0-1.067-2.492-1.067-4.81-.357-16.196-.714-22.07 5.873-30.974 3.56-4.09 8.367-6.407 15.13-7.653 4.807-1.066 10.503-1.244 16.378-1.244h3.738c1.068-.182 2.136-.182 3.383-.182 15.486-.354 25.99 1.605 33.11 6.23 6.23 4.097 9.792 9.972 10.147 17.626v6.23l-19.938.71v-6.228c0-.537 0-.713-1.068-1.068-1.425-1.068-6.408-3.38-19.403-3.38h-5.698s-2.136 0-3.56.175c-6.587.178-15.31.355-17.268 2.137-.354.357-1.958 3.025-1.245 12.46h.354c2.85.358 7.298.534 13.172.534h22.608c11.927 0 20.65 2.316 26.168 6.588 6.052 4.803 7.12 10.32 7.12 13.526zm18.868 21.36l-2.135-79.394 20.47-.355 2.136 79.57 61.772-.354V280l-85.98.89v-20.648h3.74zm89.542 12.103l6.23-15.307V239.41h7.476l22.964-55.716h15.31l21.896 55.717h6.943v17.626l6.407 16.377-17.266 6.764-8.723-21.896H529.37l-9.256 22.253-16.732-8.19zm43.968-57.852l-10.323 24.92h20.113l-9.79-24.92zm50.733 66.4l3.025-101.112 62.306 62.305-.178-57.676 18.87-.178.712 102.89-64.085-61.95-1.78 55.72h-18.87zm97.372-99.153h6.054c2.31 0 8.364-.355 16.375-.355 9.97 0 18.87.535 26.7 1.244 11.218 1.424 21.362 5.875 28.306 12.46 3.563 3.206 7.478 7.83 10.147 14.954 2.138 5.52 2.848 12.105 2.848 21.006 0 9.256-.71 15.666-2.848 21.36-2.492 6.944-6.586 11.75-10.146 14.774-6.94 6.588-17.268 11.215-28.304 12.46-7.83 1.07-17.09 1.247-27.235 1.247-7.476 0-13.35-.176-15.307-.176h-.89l-5.522-.18 1.604-19.226h4.273v-60.17l-4.273.18-1.78-19.577zm67.82 34.71c-1.065-2.85-2.67-5.16-5.518-7.653-3.56-3.56-9.433-6.23-15.664-6.588-5.874-.707-12.817-1.244-20.112-1.422V262.2c7.296-.182 14.24-.54 20.113-1.068 6.23-.713 12.28-3.03 15.664-6.766 2.672-2.492 4.45-4.807 5.52-7.834 1.247-3.025 1.603-7.3 1.603-13.174v-3.025c0-6.053-.355-10.502-1.604-13.352v-.532zm124.61 22.433c.714 7.475.714 13.705 0 18.69v.177c-1.065 6.053-3.382 10.857-6.408 14.24-3.56 4.273-8.365 6.766-14.773 8.012-4.628.712-8.9.89-14.062 1.067l-2.14.176c-2.133 0-4.27.182-6.405.182h-3.736c-16.377 0-26.88-3.383-33.47-9.793-6.762-6.94-6.762-15.13-6.762-18.69v-.18c0-.354.178-2.49.178-4.45v-3.736l19.938-.355v8.544c0 2.852.18 3.74.89 4.45.89.712 4.983 3.92 19.228 3.92h2.312c2.314-.18 4.984-.358 7.12-.358h1.066c6.588-.178 14.064-.53 15.487-2.135h.18c0-.356.89-1.067 1.066-4.27.534-3.562.534-7.834 0-13.53-1.067-.534-4.805-1.78-13.35-1.956l-22.253.176c-10.68-.176-16.91-.89-20.826-1.777-6.764-1.957-9.968-6.055-11.215-9.078 0 0-1.07-2.492-1.07-4.81-.354-16.196-.71-22.07 5.876-30.974 3.56-4.09 8.365-6.407 15.132-7.653 4.804-1.066 10.502-1.244 16.375-1.244h3.74c1.065-.182 2.135-.182 3.38-.182 15.487-.354 25.992 1.605 33.11 6.23 6.23 4.097 9.79 9.972 10.147 17.626v6.23l-19.938.71v-6.228c0-.537 0-.713-1.07-1.068-1.422-1.068-6.406-3.38-19.4-3.38h-5.52s-2.136 0-3.56.175c-6.586.178-15.31.355-17.267 2.137-.357.357-1.96 3.025-1.247 12.46h.356c2.847.358 7.3.534 13.172.534h22.608c11.926 0 20.646 2.316 26.166 6.588 5.7 4.803 6.946 10.32 6.946 13.526z" opacity=".6"/></svg>
